<mxfile host="app.diagrams.net" modified="2023-10-28T19:15:15.648Z" agent="Mozilla/5.0 (Windows NT 10.0; Win64; x64) AppleWebKit/537.36 (KHTML, like Gecko) Chrome/118.0.0.0 Safari/537.36" version="22.0.8" etag="SA999K-W2--i0FahkvBX" type="github">
  <diagram name="Page-1" id="bh1N5ma6HehGsoy46D7D">
    <mxGraphModel>
      <root>
        <mxCell id="0" />
        <mxCell id="1" parent="0" />
      </root>
    </mxGraphModel>
  </diagram>
</mxfile>
